<svg xmlns="http://www.w3.org/2000/svg" width="243.5" height="49.4" viewBox="0 18.2 243.5 49.4"><path d="M18.15 18.2 35.85 55H29.4l-3.15-7.2H9.4L6.25 55H0l17.6-36.8zm-2.5 15.65-4 8.9h12.4L20.1 33.9l-2.15-5.05h-.1zm22.95-1.8h5.3l.05 4.2q.95-2.1 3-3.45t4.8-1.35q3.55 0 5.45 1.48 1.9 1.47 2.55 4.12t.65 6.9V55H55V44.1q0-4.35-.85-6.27-.85-1.93-3.5-1.93-1.5 0-3.05.93-1.55.92-2.58 2.67Q44 41.25 44 43.6V55h-5.4zm29-13.8h5.25v13.8l-.2 4.25q.95-2.1 3.05-3.47 2.1-1.38 4.9-1.38 3.55 0 5.45 1.48 1.9 1.47 2.55 4.12t.65 6.9V55H83.9V43.9q0-2.9-.32-4.55-.33-1.65-1.3-2.5-.98-.85-2.83-.85-1.5 0-3.03.9-1.52.9-2.52 2.63-1 1.72-1 4.07V55h-5.3zm41.05 0h5.6v15h12.95v-15h5.6V55h-5.6V37.95h-12.95V55h-5.6zm39.5 37.25q-4.75 0-6.52-2.8-1.78-2.8-1.78-7.8V32.05h5.4v11.5q0 2.85.33 4.43.32 1.57 1.3 2.32.97.75 2.92.75 1.4 0 2.7-.8t2.13-2.17q.82-1.38.82-3.03v-13h5.35V55h-4.4l-.6-3.35q-1.25 1.95-3.12 2.9-1.88.95-4.53.95m26.45.2-9.5-23.65h6.1l4.9 14.6 1.1 3.55 1.1-3.55 5.15-14.6h5.9l-14.1 35.55h-5.6zm18.25-23.65h5.3l.05 4.2q.95-2.1 3-3.45t4.8-1.35q3.55 0 5.45 1.48 1.9 1.47 2.55 4.12t.65 6.9V55h-5.4V44.1q0-4.35-.85-6.27-.85-1.93-3.5-1.93-1.5 0-3.05.93-1.55.92-2.57 2.67-1.03 1.75-1.03 4.1V55h-5.4zm29-13.8h5.25v13.8l-.2 4.25q.95-2.1 3.05-3.47 2.1-1.38 4.9-1.38 3.55 0 5.45 1.48 1.9 1.47 2.55 4.12t.65 6.9V55h-5.35V43.9q0-2.9-.32-4.55-.33-1.65-1.3-2.5-.98-.85-2.83-.85-1.5 0-3.02.9-1.53.9-2.53 2.63-1 1.72-1 4.07V55h-5.3z"/></svg>